<mxfile host="Electron" modified="2023-06-26T11:21:48.526Z" agent="Mozilla/5.0 (Windows NT 10.0; Win64; x64) AppleWebKit/537.36 (KHTML, like Gecko) draw.io/21.5.0 Chrome/112.0.5615.204 Electron/24.5.1 Safari/537.36" etag="zNgKNIyUdA5QJhvthRgP" version="21.5.0" type="device">
  <diagram name="Page-1" id="03018318-947c-dd8e-b7a3-06fadd420f32">
    <mxGraphModel dx="1300" dy="1757" grid="1" gridSize="10" guides="1" tooltips="1" connect="1" arrows="1" fold="1" page="1" pageScale="1" pageWidth="1100" pageHeight="850" background="none" math="0" shadow="0">
      <root>
        <mxCell id="0" />
        <mxCell id="1" parent="0" />
        <mxCell id="677b7b8949515195-2" value="&lt;h1 style=&quot;font-family: Arial, sans-serif;&quot;&gt;&lt;a style=&quot;text-decoration-line: none;&quot; href=&quot;http://127.0.0.1:5500/index.html&quot;&gt;&lt;font color=&quot;#33001a&quot; style=&quot;font-size: 48px;&quot;&gt;Musik-Event-Kalender&lt;/font&gt;&lt;/a&gt;&lt;/h1&gt;" style="whiteSpace=wrap;html=1;rounded=0;shadow=0;labelBackgroundColor=none;strokeWidth=1;fontFamily=Verdana;fontSize=28;align=center;comic=1;strokeColor=#666666;fillColor=#f5f5f5;gradientColor=#b3b3b3;" parent="1" vertex="1">
          <mxGeometry x="40" y="10" width="1030" height="50" as="geometry" />
        </mxCell>
        <mxCell id="677b7b8949515195-9" value="" style="line;strokeWidth=1;html=1;rounded=0;shadow=0;labelBackgroundColor=none;fillColor=none;fontFamily=Verdana;fontSize=14;fontColor=#000000;align=center;comic=1;" parent="1" vertex="1">
          <mxGeometry x="30" y="140" width="1040" height="10" as="geometry" />
        </mxCell>
        <mxCell id="677b7b8949515195-10" value="" style="whiteSpace=wrap;html=1;rounded=0;shadow=0;labelBackgroundColor=none;strokeWidth=1;fillColor=#a20025;fontFamily=Verdana;fontSize=12;align=center;comic=1;strokeColor=#6F0000;fontColor=#ffffff;" parent="1" vertex="1">
          <mxGeometry x="30" y="90" width="1040" height="50" as="geometry" />
        </mxCell>
        <mxCell id="677b7b8949515195-11" value="Startseite" style="text;html=1;points=[];align=left;verticalAlign=top;spacingTop=-4;fontSize=14;fontFamily=Verdana" parent="1" vertex="1">
          <mxGeometry x="355" y="105" width="60" height="20" as="geometry" />
        </mxCell>
        <mxCell id="677b7b8949515195-12" value="Künstler" style="text;html=1;points=[];align=left;verticalAlign=top;spacingTop=-4;fontSize=14;fontFamily=Verdana" parent="1" vertex="1">
          <mxGeometry x="520" y="105" width="60" height="20" as="geometry" />
        </mxCell>
        <mxCell id="677b7b8949515195-13" value="Events" style="text;html=1;points=[];align=left;verticalAlign=top;spacingTop=-4;fontSize=14;fontFamily=Verdana" parent="1" vertex="1">
          <mxGeometry x="690" y="105" width="60" height="20" as="geometry" />
        </mxCell>
        <mxCell id="677b7b8949515195-26" value="" style="whiteSpace=wrap;html=1;rounded=0;shadow=0;labelBackgroundColor=none;strokeWidth=1;fillColor=#cdeb8b;fontFamily=Verdana;fontSize=12;align=center;comic=1;strokeColor=#36393d;" parent="1" vertex="1">
          <mxGeometry x="30" y="150" width="1040" height="630" as="geometry" />
        </mxCell>
        <mxCell id="REHDm1wyKtZERqcf-xgg-2" value="© 2023 Musik-Event-Kalender. Erstellt von Mohammad Shahir Bashiri." style="whiteSpace=wrap;html=1;rounded=0;shadow=0;labelBackgroundColor=none;strokeWidth=1;fontFamily=Verdana;fontSize=12;align=center;comic=1;fillColor=#000000;fontColor=#FFFFFF;" parent="1" vertex="1">
          <mxGeometry x="30" y="780" width="1040" height="50" as="geometry" />
        </mxCell>
        <mxCell id="REHDm1wyKtZERqcf-xgg-4" value="&lt;h1 style=&quot;font-family: Arial, sans-serif;&quot;&gt;Galerie vergangener Events&lt;div style=&quot;display: inline-block; margin: 10px; text-align: center; font-family: Arial, sans-serif; font-size: medium; font-style: normal; font-variant-ligatures: normal; font-variant-caps: normal; font-weight: 400; letter-spacing: normal; orphans: 2; text-indent: 0px; text-transform: none; widows: 2; word-spacing: 0px; -webkit-text-stroke-width: 0px; text-decoration-thickness: initial; text-decoration-style: initial; text-decoration-color: initial;&quot; class=&quot;gallery-item&quot;&gt;&lt;/div&gt;&lt;/h1&gt;&lt;p style=&quot;font-family: Arial, sans-serif; font-size: medium;&quot;&gt;&lt;/p&gt;" style="whiteSpace=wrap;html=1;rounded=0;shadow=0;labelBackgroundColor=none;strokeWidth=1;fillColor=none;fontFamily=Verdana;fontSize=12;align=center;comic=1;strokeColor=none;fontColor=#000000;" parent="1" vertex="1">
          <mxGeometry x="340" y="160" width="450" height="50" as="geometry" />
        </mxCell>
        <mxCell id="-aSSJh2xcYYNKjljCAwS-2" value="The Rolling Stones&lt;br&gt;" style="text;html=1;points=[];align=left;verticalAlign=top;spacingTop=-4;fontSize=14;fontFamily=Verdana" parent="1" vertex="1">
          <mxGeometry x="480" y="220" width="140" height="20" as="geometry" />
        </mxCell>
        <mxCell id="-aSSJh2xcYYNKjljCAwS-3" value="Travis Scott" style="text;html=1;points=[];align=left;verticalAlign=top;spacingTop=-4;fontSize=14;fontFamily=Verdana" parent="1" vertex="1">
          <mxGeometry x="497.5" y="380" width="90" height="20" as="geometry" />
        </mxCell>
        <mxCell id="-aSSJh2xcYYNKjljCAwS-4" value="Taylor Swift" style="text;html=1;points=[];align=left;verticalAlign=top;spacingTop=-4;fontSize=14;fontFamily=Verdana" parent="1" vertex="1">
          <mxGeometry x="507.5" y="550" width="80" height="20" as="geometry" />
        </mxCell>
        <mxCell id="-aSSJh2xcYYNKjljCAwS-5" value="" style="verticalLabelPosition=bottom;shadow=0;dashed=0;align=center;html=1;verticalAlign=top;strokeWidth=1;shape=mxgraph.mockup.containers.userFemale;strokeColor=#10739e;strokeColor2=#008cff;fillColor=#b1ddf0;" parent="1" vertex="1">
          <mxGeometry x="483.5" y="600" width="121" height="120" as="geometry" />
        </mxCell>
        <mxCell id="-aSSJh2xcYYNKjljCAwS-6" value="" style="verticalLabelPosition=bottom;shadow=0;dashed=0;align=center;html=1;verticalAlign=top;strokeWidth=1;shape=mxgraph.mockup.containers.userMale;strokeColor=#10739e;strokeColor2=#008cff;fillColor=#b1ddf0;" parent="1" vertex="1">
          <mxGeometry x="488" y="425" width="112" height="115" as="geometry" />
        </mxCell>
        <mxCell id="-aSSJh2xcYYNKjljCAwS-8" value="" style="verticalLabelPosition=bottom;shadow=0;dashed=0;align=center;html=1;verticalAlign=top;strokeWidth=1;shape=mxgraph.mockup.containers.userMale;strokeColor2=#008cff;fillColor=#b1ddf0;strokeColor=#10739e;" parent="1" vertex="1">
          <mxGeometry x="490" y="270" width="105" height="100" as="geometry" />
        </mxCell>
        <mxCell id="8bhLMPXbeeg6Fwu4jM4C-1" value="beschreibung&lt;br&gt;" style="text;html=1;points=[];align=left;verticalAlign=top;spacingTop=-4;fontSize=14;fontFamily=Verdana" parent="1" vertex="1">
          <mxGeometry x="477.5" y="240" width="130" height="20" as="geometry" />
        </mxCell>
        <mxCell id="8bhLMPXbeeg6Fwu4jM4C-2" value="beschreibung&lt;br&gt;" style="text;html=1;points=[];align=left;verticalAlign=top;spacingTop=-4;fontSize=14;fontFamily=Verdana" parent="1" vertex="1">
          <mxGeometry x="490" y="400" width="130" height="20" as="geometry" />
        </mxCell>
        <mxCell id="8bhLMPXbeeg6Fwu4jM4C-3" value="beschreibung&lt;br&gt;" style="text;html=1;points=[];align=left;verticalAlign=top;spacingTop=-4;fontSize=14;fontFamily=Verdana" parent="1" vertex="1">
          <mxGeometry x="490" y="570" width="130" height="20" as="geometry" />
        </mxCell>
      </root>
    </mxGraphModel>
  </diagram>
</mxfile>
